<?xml version="1.0" encoding="utf-8"?><svg viewBox="0 0 512 512" xmlns="http://www.w3.org/2000/svg" xmlns:xlink="http://www.w3.org/1999/xlink"><style>:root>svg{display:none}:root>svg:target{display:block}</style><svg viewBox="0 0 17 17" id="arrow" xmlns="http://www.w3.org/2000/svg"><path d="M6.19 3.813a.667.667 0 00-.44 1.181L9.83 8.49l-4.08 3.494a.667.667 0 10.867 1.009l4.67-3.996a.667.667 0 000-1.015l-4.67-4a.667.667 0 00-.428-.168z"/></svg><svg viewBox="0 0 12 8" id="arrow-down" xmlns="http://www.w3.org/2000/svg"><path d="M6.71 6.83l4.24-4.24a1 1 0 00-.705-1.71 1 1 0 00-.705.29L6 4.71 2.46 1.17a1 1 0 00-1.41 0 1 1 0 00-.29.71 1 1 0 00.29.71l4.24 4.24a1 1 0 001.42 0z"/></svg><svg viewBox="0 0 13 13" id="arrow-link" xmlns="http://www.w3.org/2000/svg"><path d="M12.174.62a1 1 0 00-.54-.54 1 1 0 00-.38-.08h-10a1 1 0 000 2h7.59l-8.3 8.29a1 1 0 00.325 1.639 1 1 0 001.095-.219l8.29-8.3V11a1 1 0 002 0V1a1.001 1.001 0 00-.08-.38z"/></svg><svg viewBox="0 0 30 30" id="availability" xmlns="http://www.w3.org/2000/svg"><path d="M18.4 10.988l-5.362 5.375-2.063-2.063a1.252 1.252 0 00-2.113.357 1.25 1.25 0 00.35 1.405l2.938 2.95a1.249 1.249 0 001.762 0l6.25-6.25a1.249 1.249 0 000-1.774 1.25 1.25 0 00-1.762 0zM15 2.5a12.5 12.5 0 100 25 12.5 12.5 0 000-25zM15 25a10 10 0 110-20 10 10 0 010 20z"/></svg><svg fill="none" viewBox="0 0 26 28" id="bonus" xmlns="http://www.w3.org/2000/svg"><path d="M13 13a6.043 6.043 0 00-6.036 6.036A6.043 6.043 0 0013 25.07a6.043 6.043 0 006.036-6.035A6.043 6.043 0 0013 13zm0 11.143a5.113 5.113 0 01-5.107-5.107A5.113 5.113 0 0113 13.929a5.113 5.113 0 015.107 5.107A5.113 5.113 0 0113 24.143zm.371-9.1a.464.464 0 00-.742 0l-1.287 1.715-2.147.43a.465.465 0 00-.28.733l1.268 1.692-.424 2.117a.464.464 0 00.602.532l2.639-.88 2.639.88a.464.464 0 00.602-.532l-.424-2.117 1.269-1.692a.464.464 0 00-.28-.733l-2.148-.43-1.287-1.715zm1.579 4.178a.465.465 0 00-.084.37l.308 1.537-2.027-.676a.465.465 0 00-.294 0l-2.027.676.308-1.537a.464.464 0 00-.084-.37l-.95-1.267 1.598-.32a.464.464 0 00.28-.177L13 16.095l1.021 1.362a.464.464 0 00.28.177l1.6.32-.951 1.267zm6.633-9.18a17.917 17.917 0 00-3.366-1.416c.771-.612 1.868-1.59 2.182-2.426.41-1.093 1.365-4.536 1.405-4.682a.464.464 0 00-.447-.588c-.837 0-1.288.3-1.65.542-.324.216-.58.386-1.136.386-.443 0-.666-.268-1.021-.743C17.177.618 16.714 0 15.785 0c-.928 0-1.392.618-1.764 1.114-.356.475-.579.743-1.021.743-.443 0-.666-.268-1.022-.743C11.606.618 11.143 0 10.214 0S8.822.618 8.45 1.114c-.356.475-.579.743-1.022.743-.555 0-.811-.17-1.135-.386-.362-.242-.813-.542-1.65-.542a.464.464 0 00-.448.588c.04.146.995 3.589 1.406 4.682.314.836 1.41 1.814 2.182 2.426-.826.253-2.09.707-3.366 1.416C1.527 11.646 0 13.793 0 16.25a.464.464 0 00.929 0c0-2.124 1.32-3.937 3.922-5.388.914-.51 1.836-.883 2.57-1.14-1.372 1.646-3.645 4.628-4.16 6.89-.173.76-.48 2.97-.915 6.566a4.181 4.181 0 004.149 4.68h13.01a4.182 4.182 0 004.149-4.68c-.434-3.597-.742-5.806-.916-6.567-.514-2.261-2.787-5.243-4.16-6.889.735.257 1.657.63 2.571 1.14 2.603 1.451 3.922 3.264 3.922 5.388a.464.464 0 00.929 0c0-2.457-1.527-4.604-4.417-6.21zm-4.61-.755c.272.305.54.614.802.928h-9.55c.262-.314.53-.623.802-.928h7.946zM6.47 5.872c-.287-.764-.878-2.82-1.185-3.907.18.07.327.168.493.278.362.242.813.543 1.65.543.929 0 1.392-.618 1.765-1.115.355-.474.578-.742 1.02-.742.444 0 .667.268 1.022.742.373.497.836 1.115 1.765 1.115.928 0 1.392-.618 1.764-1.115.356-.474.579-.742 1.021-.742.443 0 .666.268 1.022.742.372.497.836 1.115 1.764 1.115.837 0 1.288-.301 1.65-.543.166-.11.314-.209.494-.279-.307 1.088-.898 3.144-1.185 3.908-.296.787-1.806 1.989-2.499 2.485h-.601l.725-2.175a.464.464 0 00-.881-.293l-.823 2.468h-1.987V6.036a.464.464 0 10-.928 0v2.321h-1.987L9.726 5.89a.464.464 0 00-.88.294l.724 2.174H8.97C8.276 7.861 6.766 6.66 6.47 5.872zM22.732 23.29a3.251 3.251 0 01-3.226 3.64H6.495a3.254 3.254 0 01-3.103-2.282 3.251 3.251 0 01-.124-1.358c.424-3.514.735-5.753.899-6.472.395-1.738 2.013-4.044 3.302-5.674H18.53c1.29 1.63 2.906 3.935 3.302 5.674.164.72.475 2.958.9 6.472z" fill="#fff"/></svg><svg fill="none" viewBox="0 0 60 60" id="btn-details" xmlns="http://www.w3.org/2000/svg"><g clip-path="url(#afclip0_669_1644)"><path d="M30 60c16.569 0 30-13.431 30-30C60 13.431 46.569 0 30 0 13.431 0 0 13.431 0 30c0 16.569 13.431 30 30 30z" fill="#95CDB2"/><path d="M30 0v60c16.57 0 30-13.43 30-30S46.57 0 30 0z" fill="#95CDB2"/><path d="M55.336 26.625h-3.422v-2.871h3.422c.797 0 1.43.644 1.43 1.43a1.423 1.423 0 01-1.43 1.441z" fill="#fff"/><path d="M42.926 34.617a9.422 9.422 0 100-18.844 9.422 9.422 0 000 18.844z" fill="#fff"/><path d="M42.926 31.23a6.035 6.035 0 100-12.07 6.035 6.035 0 000 12.07z" fill="#95CDB2"/><path d="M54.223 60h-.293a.63.63 0 01-.633-.633V26.625h1.559v32.742a.63.63 0 01-.633.633zM42.926 28.207c1.184 0 2.144-1.348 2.144-3.012 0-1.663-.96-3.011-2.144-3.011-1.185 0-2.145 1.348-2.145 3.011 0 1.664.96 3.012 2.145 3.012zM14.8 28.559c1.328 0 2.403-1.506 2.403-3.364 0-1.857-1.075-3.363-2.402-3.363-1.327 0-2.403 1.506-2.403 3.363 0 1.858 1.076 3.364 2.403 3.364zM11.004 18.738a.936.936 0 01-.82-.48.925.925 0 01.363-1.266c.152-.082 3.82-2.086 8.859-.515.492.152.773.68.621 1.171a.941.941 0 01-1.172.622c-4.242-1.325-7.265.292-7.394.363a1.295 1.295 0 01-.457.105zM41.414 15.07a.915.915 0 01-.633-.245.941.941 0 01-.047-1.325c.117-.129 2.988-3.164 8.262-3.234a.933.933 0 01.949.926.94.94 0 01-.926.949c-4.441.059-6.82 2.531-6.914 2.637-.2.199-.445.293-.691.293zM19.938 41a.944.944 0 00-.693.306.949.949 0 00.059 1.332c5.592 5.103 10.855 4.808 14.297 3.677 3.69-1.214 6.027-3.618 6.133-3.712a.938.938 0 00-.023-1.332.93.93 0 00-1.328.024c-.035.035-2.174 2.203-5.428 3.264-4.288 1.39-8.459.283-12.382-3.3a.917.917 0 00-.635-.259z" fill="#fff"/><path d="M39.734 42.593c-.095.106-2.483 2.496-6.233 3.721a13.728 13.728 0 01-4.501.683v-1.872a11.915 11.915 0 003.845-.577c3.307-1.06 5.492-3.227 5.516-3.262a.968.968 0 011.35-.024c.382.353.382.954.023 1.33z" fill="#fff"/></g><defs><clipPath id="afclip0_669_1644"><path fill="#fff" d="M0 0h60v60H0z"/></clipPath></defs></svg><svg viewBox="0 0 22 22" id="calendar" xmlns="http://www.w3.org/2000/svg"><path d="M18.7 2.2h-2.2V1.1a1.1 1.1 0 00-2.2 0v1.1H7.7V1.1a1.1 1.1 0 10-2.2 0v1.1H3.3A3.3 3.3 0 000 5.5v13.2A3.3 3.3 0 003.3 22h15.4a3.3 3.3 0 003.3-3.3V5.5a3.3 3.3 0 00-3.3-3.3zm1.1 16.5a1.1 1.1 0 01-1.1 1.1H3.3a1.1 1.1 0 01-1.1-1.1V11h17.6v7.7zm0-9.9H2.2V5.5a1.1 1.1 0 011.1-1.1h2.2v1.1a1.1 1.1 0 102.2 0V4.4h6.6v1.1a1.1 1.1 0 002.2 0V4.4h2.2a1.1 1.1 0 011.1 1.1v3.3z"/></svg><svg viewBox="0 0 28 32" id="cart" xmlns="http://www.w3.org/2000/svg"><path d="M27.139 30.593c.266-.29.395-.68.353-1.072L25.21 8.137a1.389 1.389 0 00-1.386-1.235H20.03V6.44c0-3.283-2.713-5.94-6.03-5.94-3.32 0-6.032 2.657-6.032 5.94v.462H4.177c-.706 0-1.31.527-1.386 1.235L.508 29.52c-.042.392.088.781.353 1.071.265.29.641.454 1.033.454h24.212a1.4 1.4 0 001.033-.453zm0 0l-.369-.338m.369.338l-.369-.338m0 0a.901.901 0 01-.664.29H1.894a.902.902 0 01-.664-.29m25.54 0a.87.87 0 00.225-.68l-25.765.68m0 0a.872.872 0 01-.225-.68l.225.68zM10.757 6.44c0-1.746 1.447-3.181 3.243-3.181 1.796 0 3.243 1.435 3.243 3.181v.462h-6.486V6.44zm11.811 3.221l1.989 18.626H3.443L5.432 9.66h2.537V11.1c0 .77.632 1.38 1.394 1.38.762 0 1.394-.61 1.394-1.38V9.661h6.486V11.1c0 .77.632 1.38 1.394 1.38.762 0 1.394-.61 1.394-1.38V9.661h2.537z"/></svg><svg viewBox="0 0 25 24" id="catalog" xmlns="http://www.w3.org/2000/svg"><path d="M21.5 3.475h-5.123a1 1 0 00-1 1v5.123a1 1 0 001 1H21.5a1 1 0 001-1V4.475a1 1 0 00-1-1zM11.866 6.33L8.244 2.706a1 1 0 00-1.414 0L3.207 6.33a1 1 0 000 1.415l3.623 3.622a1 1 0 001.414 0l3.622-3.622a1 1 0 000-1.415zM10.098 14.877H4.975a1 1 0 00-1 1V21a1 1 0 001 1h5.123a1 1 0 001-1v-5.123a1 1 0 00-1-1zM21.5 14.877h-5.123a1 1 0 00-1 1V21a1 1 0 001 1H21.5a1 1 0 001-1v-5.123a1 1 0 00-1-1z"/></svg><svg viewBox="0 0 24 24" id="chat" xmlns="http://www.w3.org/2000/svg"><path d="M12 2A10 10 0 002 12a9.89 9.89 0 002.26 6.33l-2 2a1 1 0 00-.21 1.09A1 1 0 003 22h9a10 10 0 000-20zm0 18H5.41l.93-.93a1 1 0 000-1.41A8 8 0 1112 20z"/></svg><svg viewBox="0 0 20 20" id="close" xmlns="http://www.w3.org/2000/svg"><path d="M11.832 10.016L19.62 2.23A1.294 1.294 0 1017.788.397L10 8.183 2.212.396A1.294 1.294 0 10.38 2.23l7.788 7.787L.38 17.804a1.294 1.294 0 00.916 2.212c.332 0 .664-.127.916-.38L10 11.85l7.788 7.787a1.292 1.292 0 001.832 0 1.294 1.294 0 000-1.832l-7.788-7.788z"/></svg><svg fill="none" viewBox="0 0 30 26" id="delivery" xmlns="http://www.w3.org/2000/svg"><path d="M0 13.636v6.819a1.364 1.364 0 001.364 1.363h1.363a4.09 4.09 0 108.182 0h8.182a4.09 4.09 0 108.182 0h1.363A1.364 1.364 0 0030 20.454V4.091A4.09 4.09 0 0025.91 0H13.635a4.09 4.09 0 00-4.09 4.09v2.728H6.817a4.091 4.091 0 00-3.273 1.637L.273 12.818a.832.832 0 00-.096.191l-.082.15c-.06.152-.092.314-.095.477zm21.818 8.182a1.364 1.364 0 112.728 0 1.364 1.364 0 01-2.728 0zM12.273 4.091a1.364 1.364 0 011.363-1.364H25.91a1.363 1.363 0 011.364 1.364v15h-1.064a4.09 4.09 0 00-6.055 0h-7.881v-15zm-2.728 8.182H4.091l1.636-2.182a1.364 1.364 0 011.091-.546h2.727v2.728zm-4.09 9.545a1.364 1.364 0 112.727 0 1.364 1.364 0 01-2.727 0zM2.727 15h6.818v3.79a4.091 4.091 0 00-5.754.3H2.727V15z" fill="#fff"/></svg><svg viewBox="0 0 512 512" id="email" xmlns="http://www.w3.org/2000/svg"><path d="M467 76H45C20.137 76 0 96.262 0 121v270c0 24.885 20.285 45 45 45h422c24.655 0 45-20.03 45-45V121c0-24.694-20.057-45-45-45zm-6.302 30L287.82 277.967c-8.5 8.5-19.8 13.18-31.82 13.18s-23.32-4.681-31.848-13.208L51.302 106h409.396zM30 384.894V127.125L159.638 256.08 30 384.894zM51.321 406l129.587-128.763 22.059 21.943c14.166 14.166 33 21.967 53.033 21.967s38.867-7.801 53.005-21.939l22.087-21.971L460.679 406H51.321zM482 384.894L352.362 256.08 482 127.125v257.769z"/></svg><svg viewBox="0 0 24 24" id="exclamation" xmlns="http://www.w3.org/2000/svg"><path d="M12 22.75C6.07 22.75 1.25 17.93 1.25 12S6.07 1.25 12 1.25 22.75 6.07 22.75 12 17.93 22.75 12 22.75zm0-20C6.9 2.75 2.75 6.9 2.75 12S6.9 21.25 12 21.25s9.25-4.15 9.25-9.25S17.1 2.75 12 2.75z"/><path d="M12 13.75c-.41 0-.75-.34-.75-.75V8c0-.41.34-.75.75-.75s.75.34.75.75v5c0 .41-.34.75-.75.75zM12 17c-.13 0-.26-.03-.38-.08s-.23-.12-.33-.21c-.09-.1-.16-.2-.21-.33-.05-.12-.08-.25-.08-.38s.03-.26.08-.38.12-.23.21-.33c.1-.09.21-.16.33-.21a1 1 0 01.76 0c.12.05.23.12.33.21.09.1.16.21.21.33s.08.25.08.38-.03.26-.08.38c-.05.13-.12.23-.21.33-.1.09-.21.16-.33.21s-.25.08-.38.08z"/></svg><svg fill="none" viewBox="0 0 26 26" id="exit" xmlns="http://www.w3.org/2000/svg"><path d="M14.625 22.75h-4.333a.542.542 0 110-1.083h4.333c.896 0 1.625-.73 1.625-1.625v-5.417a.542.542 0 011.083 0v5.417a2.711 2.711 0 01-2.708 2.708zm10.833-10.833H14.625a.541.541 0 110-1.083h10.833a.542.542 0 010 1.083z" fill="#fff"/><path d="M8.667 26c-.239 0-.472-.04-.691-.118l-6.49-2.164A2.165 2.165 0 010 21.667v-19.5C0 .972.972 0 2.167 0c.24 0 .474.04.692.12L9.347 2.28a2.163 2.163 0 011.486 2.052v19.5A2.169 2.169 0 018.667 26zm-6.5-24.917c-.598 0-1.084.487-1.084 1.084v19.5a1.083 1.083 0 00.746 1.024l6.5 2.167c.71.253 1.421-.316 1.421-1.025v-19.5a1.079 1.079 0 00-.745-1.023l-6.5-2.167a.997.997 0 00-.338-.06z" fill="#fff"/><path d="M16.792 8.667a.542.542 0 01-.542-.542V2.708c0-.896-.73-1.625-1.625-1.625H2.167a.542.542 0 110-1.083h12.458a2.711 2.711 0 012.708 2.708v5.417a.542.542 0 01-.541.542zm4.333 7.583a.542.542 0 01-.384-.924l3.95-3.95-3.95-3.95a.541.541 0 01.766-.766l4.334 4.334a.541.541 0 010 .766l-4.334 4.333a.543.543 0 01-.382.157z" fill="#fff"/></svg><svg viewBox="0 0 35 35" id="facebook" xmlns="http://www.w3.org/2000/svg"><g clip-path="url(#apclip0_11_232)"><path d="M15.909 13.523v1.59h-1.59V17.5h1.59v7.159h3.182V17.5h2.116l.27-2.386h-2.386V13.72c0-.644.063-.986 1.058-.986h1.328v-2.394h-2.132c-2.545 0-3.436 1.193-3.436 3.182z"/><path d="M17.5 0C7.835 0 0 7.835 0 17.5S7.835 35 17.5 35 35 27.165 35 17.5 27.165 0 17.5 0zm0 33.41c-8.786 0-15.91-7.124-15.91-15.91 0-8.786 7.124-15.91 15.91-15.91 8.786 0 15.91 7.124 15.91 15.91 0 8.786-7.124 15.91-15.91 15.91z"/></g><defs><clipPath id="apclip0_11_232"><path fill="#fff" d="M0 0h35v35H0z"/></clipPath></defs></svg><svg viewBox="0 0 32 29" id="favorite" xmlns="http://www.w3.org/2000/svg"><path d="M28.676 3.724a9.787 9.787 0 00-12.697-.996A9.756 9.756 0 003.282 17.479l9.663 9.678a4.325 4.325 0 006.068 0l9.663-9.678a9.756 9.756 0 000-13.755zm-2.194 11.608l-9.663 9.662a1.182 1.182 0 01-1.68 0l-9.663-9.709a6.675 6.675 0 010-9.336 6.644 6.644 0 019.336 0 1.555 1.555 0 002.21 0 6.644 6.644 0 019.336 0 6.676 6.676 0 01.124 9.336v.047z"/></svg><svg viewBox="0 0 28 24" id="filter" xmlns="http://www.w3.org/2000/svg"><path fill-rule="evenodd" clip-rule="evenodd" d="M23.375 10.125H4.625c-.517 0-.996.175-1.348.527-.352.352-.527.831-.527 1.348 0 .517.175.996.527 1.348.352.352.831.527 1.348.527h18.75c.517 0 .997-.175 1.348-.527.352-.352.527-.831.527-1.348 0-.517-.175-.996-.527-1.348-.351-.352-.831-.527-1.348-.527zm-21.25-6.25h23.75c.517 0 .997-.175 1.348-.527.352-.352.527-.831.527-1.348 0-.517-.175-.996-.527-1.348-.351-.352-.831-.527-1.348-.527H2.125C1.608.125 1.129.3.777.652.425 1.004.25 1.483.25 2c0 .517.175.996.527 1.348.352.352.831.527 1.348.527zm18.75 16.25H7.125c-.517 0-.996.175-1.348.527-.352.351-.527.831-.527 1.348 0 .517.175.997.527 1.348.352.352.831.527 1.348.527h13.75c.517 0 .997-.175 1.348-.527.352-.351.527-.831.527-1.348 0-.517-.175-.997-.527-1.348-.351-.352-.831-.527-1.348-.527z"/></svg><svg viewBox="0 0 36 36" id="filter-arrow" xmlns="http://www.w3.org/2000/svg"><path d="M19.214 22.215l7.278-7.278a1.718 1.718 0 10-2.42-2.438l-6.077 6.077-6.077-6.077a1.717 1.717 0 00-2.42 0A1.717 1.717 0 009 13.718a1.717 1.717 0 00.498 1.219l7.278 7.278a1.716 1.716 0 002.438 0z"/></svg><svg viewBox="0 0 31 30" id="help" xmlns="http://www.w3.org/2000/svg"><path d="M17.122 6.922a1.664 1.664 0 000 2.362l3.194 3.195a1.664 1.664 0 002.363 0l6.789-6.789a1.664 1.664 0 10-2.363-2.313l-5.607 5.575-2.014-2.03a1.664 1.664 0 00-2.362 0zm11.015 5.84a1.664 1.664 0 00-1.514 1.797c.008.155.008.31 0 .466a11.647 11.647 0 01-11.648 11.647H5.674l1.065-1.048a1.664 1.664 0 000-2.346 11.648 11.648 0 015.79-19.651 11.88 11.88 0 014.66 0 1.697 1.697 0 00.665-3.328 15.225 15.225 0 00-6.007 0A15.058 15.058 0 000 15.025a14.975 14.975 0 003.328 9.351L.483 27.155a1.664 1.664 0 00-.35 1.813A1.664 1.664 0 001.663 30h13.312A14.975 14.975 0 0029.95 15.025v-.732a1.664 1.664 0 00-1.813-1.531z"/></svg><svg viewBox="0 0 511 511.999" id="home" xmlns="http://www.w3.org/2000/svg"><path d="M498.7 222.695c-.016-.011-.028-.027-.04-.039L289.805 13.81C280.902 4.902 269.066 0 256.477 0c-12.59 0-24.426 4.902-33.332 13.809L14.398 222.55c-.07.07-.144.144-.21.215-18.282 18.386-18.25 48.218.09 66.558 8.378 8.383 19.44 13.235 31.273 13.746.484.047.969.07 1.457.07h8.32v153.696c0 30.418 24.75 55.164 55.168 55.164h81.711c8.285 0 15-6.719 15-15V376.5c0-13.879 11.293-25.168 25.172-25.168h48.195c13.88 0 25.168 11.29 25.168 25.168V497c0 8.281 6.715 15 15 15h81.711c30.422 0 55.168-24.746 55.168-55.164V303.14h7.719c12.586 0 24.422-4.903 33.332-13.813 18.36-18.367 18.367-48.254.027-66.633zm-21.243 45.422a17.03 17.03 0 01-12.117 5.024h-22.72c-8.285 0-15 6.714-15 15v168.695c0 13.875-11.289 25.164-25.168 25.164h-66.71V376.5c0-30.418-24.747-55.168-55.169-55.168H232.38c-30.422 0-55.172 24.75-55.172 55.168V482h-66.71c-13.876 0-25.169-11.29-25.169-25.164V288.14c0-8.286-6.715-15-15-15H48a13.9 13.9 0 00-.703-.032c-4.469-.078-8.66-1.851-11.8-4.996-6.68-6.68-6.68-17.55 0-24.234.003 0 .003-.004.007-.008l.012-.012L244.363 35.02A17.003 17.003 0 01256.477 30c4.574 0 8.875 1.781 12.113 5.02l208.8 208.796.098.094c6.645 6.692 6.633 17.54-.031 24.207zm0 0"/></svg><svg viewBox="0 0 512 512" id="info-page-delivery" xmlns="http://www.w3.org/2000/svg"><path d="M386.689 304.403c-35.587 0-64.538 28.951-64.538 64.538s28.951 64.538 64.538 64.538c35.593 0 64.538-28.951 64.538-64.538s-28.951-64.538-64.538-64.538zm0 96.807c-17.796 0-32.269-14.473-32.269-32.269s14.473-32.269 32.269-32.269 32.269 14.473 32.269 32.269c0 17.797-14.473 32.269-32.269 32.269zm-220.504-96.807c-35.587 0-64.538 28.951-64.538 64.538s28.951 64.538 64.538 64.538 64.538-28.951 64.538-64.538-28.951-64.538-64.538-64.538zm0 96.807c-17.796 0-32.269-14.473-32.269-32.269s14.473-32.269 32.269-32.269c17.791 0 32.269 14.473 32.269 32.269 0 17.797-14.473 32.269-32.269 32.269zM430.15 119.675a16.143 16.143 0 00-14.419-8.885h-84.975v32.269h75.025l43.934 87.384 28.838-14.5-48.403-96.268z"/><path d="M216.202 353.345h122.084v32.269H216.202zm-98.421 0H61.849c-8.912 0-16.134 7.223-16.134 16.134 0 8.912 7.223 16.134 16.134 16.134h55.933c8.912 0 16.134-7.223 16.134-16.134 0-8.912-7.223-16.134-16.135-16.134zm390.831-98.636l-31.736-40.874a16.112 16.112 0 00-12.741-6.239H346.891V94.655c0-8.912-7.223-16.134-16.134-16.134H61.849c-8.912 0-16.134 7.223-16.134 16.134s7.223 16.134 16.134 16.134h252.773V223.73c0 8.912 7.223 16.134 16.134 16.134h125.478l23.497 30.268v83.211h-44.639c-8.912 0-16.134 7.223-16.134 16.134 0 8.912 7.223 16.134 16.134 16.134h60.773c8.912 0 16.134-7.223 16.135-16.134V264.605c0-3.582-1.194-7.067-3.388-9.896zm-391.906 16.888H42.487c-8.912 0-16.134 7.223-16.134 16.134 0 8.912 7.223 16.134 16.134 16.134h74.218c8.912 0 16.134-7.223 16.134-16.134.001-8.911-7.222-16.134-16.133-16.134zm37.109-63.463H16.134C7.223 208.134 0 215.357 0 224.269s7.223 16.134 16.134 16.134h137.681c8.912 0 16.134-7.223 16.134-16.134s-7.222-16.135-16.134-16.135z"/><path d="M180.168 144.672H42.487c-8.912 0-16.134 7.223-16.134 16.134 0 8.912 7.223 16.134 16.134 16.134h137.681c8.912 0 16.134-7.223 16.134-16.134.001-8.911-7.222-16.134-16.134-16.134z"/></svg><svg fill="none" viewBox="0 0 53 48" id="info-page-pay-cart" xmlns="http://www.w3.org/2000/svg"><path fill-rule="evenodd" clip-rule="evenodd" d="M4.125 2.5C3.19 2.5 2.5 3.19 2.5 4.125v21.75c0 1.091.712 1.625 1.25 1.625h2.5a1.25 1.25 0 010 2.5h-2.5C1.538 30 0 28.034 0 25.875V4.125C0 1.81 1.81 0 4.125 0h35.5c2.315 0 4.125 1.81 4.125 4.125V15a1.25 1.25 0 11-2.5 0V4.125c0-.935-.69-1.625-1.625-1.625h-35.5z" fill="#fff"/><path fill-rule="evenodd" clip-rule="evenodd" d="M0 7.5c0-.69.56-1.25 1.25-1.25H42.5c.69 0 1.25.56 1.25 1.25v5c0 .69-.56 1.25-1.25 1.25H1.25C.56 13.75 0 13.19 0 12.5v-5zm2.5 1.25v2.5h38.75v-2.5H2.5zM12.875 20c-.935 0-1.625.69-1.625 1.625v21.75c0 .935.69 1.625 1.625 1.625H48.25c.97 0 1.75-.85 1.75-1.625v-21.75C50 20.69 49.31 20 48.375 20h-35.5zM8.75 21.625c0-2.315 1.81-4.125 4.125-4.125h35.5c2.315 0 4.125 1.81 4.125 4.125v21.75c0 2.224-1.969 4.125-4.25 4.125H12.875c-2.315 0-4.125-1.81-4.125-4.125v-21.75z" fill="#fff"/><path fill-rule="evenodd" clip-rule="evenodd" d="M15 40c0-.69.56-1.25 1.25-1.25h6.25a1.25 1.25 0 110 2.5h-6.25c-.69 0-1.25-.56-1.25-1.25zM26.25 40c0-.69.56-1.25 1.25-1.25h6.25a1.25 1.25 0 110 2.5H27.5c-.69 0-1.25-.56-1.25-1.25zM37.5 40c0-.69.56-1.25 1.25-1.25H45a1.25 1.25 0 110 2.5h-6.25c-.69 0-1.25-.56-1.25-1.25zM41.875 27.5a1.875 1.875 0 100 3.75 1.875 1.875 0 000-3.75zM37.5 29.375a4.375 4.375 0 118.75 0 4.375 4.375 0 01-8.75 0z" fill="#fff"/></svg><svg fill="none" viewBox="0 0 45 45" id="info-page-pay-cash" xmlns="http://www.w3.org/2000/svg"><path fill-rule="evenodd" clip-rule="evenodd" d="M34.125 15.625a3.737 3.737 0 00-2.75 3.606v9.609l-2.08-1.85c-.484-.429-.89-.657-1.319-.792-.447-.141-.99-.204-1.789-.204-3.442 0-6.494 2.508-6.494 5.706a1.25 1.25 0 01-2.5 0c0-4.939 4.561-8.206 8.994-8.206.908 0 1.743.068 2.542.32l.146.048v-4.63a6.235 6.235 0 016.237-6.238h1.513v18.312c0 2.99-.853 5.844-2.29 8.144a1.25 1.25 0 01-2.12-1.325c1.187-1.9 1.91-4.295 1.91-6.819v-15.68zM8.994 23.625c.69 0 1.25.56 1.25 1.25v8.531c0 1.662.356 3.156 1.029 4.39a1.25 1.25 0 01-2.195 1.196c-.902-1.654-1.334-3.572-1.334-5.586v-8.531c0-.69.56-1.25 1.25-1.25z" fill="#fff"/><path fill-rule="evenodd" clip-rule="evenodd" d="M7.875 38.063h28.75v5.187a1.25 1.25 0 11-2.5 0v-2.688h-23.75v2.688a1.25 1.25 0 11-2.5 0v-5.188zM0 1.25C0 .56.56 0 1.25 0h42c.69 0 1.25.56 1.25 1.25v23.625c0 .69-.56 1.25-1.25 1.25h-7.875a1.25 1.25 0 110-2.5H42V2.5H2.5v21.125h27.625a1.25 1.25 0 110 2.5H1.25c-.69 0-1.25-.56-1.25-1.25V1.25z" fill="#fff"/><path fill-rule="evenodd" clip-rule="evenodd" d="M21.594 7.75a5.969 5.969 0 100 11.937 5.969 5.969 0 000-11.937zm-8.469 5.969a8.469 8.469 0 1116.938 0 8.469 8.469 0 01-16.938 0zM36.162 2.494c.69 0 1.25.56 1.25 1.25 0 1.672 1.278 2.95 2.95 2.95a1.25 1.25 0 110 2.5c-3.053 0-5.45-2.397-5.45-5.45 0-.69.56-1.25 1.25-1.25zM2.625 17.919c0-.69.56-1.25 1.25-1.25 3.002 0 5.581 2.347 5.581 5.45a1.25 1.25 0 01-2.5 0c0-1.623-1.358-2.95-3.081-2.95-.69 0-1.25-.56-1.25-1.25zM8.075 2.625c.69 0 1.25.56 1.25 1.25 0 2.972-2.58 5.319-5.45 5.319a1.25 1.25 0 110-2.5c1.593 0 2.95-1.329 2.95-2.819 0-.69.56-1.25 1.25-1.25zM34.781 22.119c0-3.103 2.58-5.45 5.581-5.45a1.25 1.25 0 110 2.5c-1.722 0-3.08 1.327-3.08 2.95a1.25 1.25 0 01-2.5 0z" fill="#fff"/></svg><svg viewBox="0 0 35 35" id="instagram" xmlns="http://www.w3.org/2000/svg"><g clip-path="url(#ayclip0_196_633)"><path d="M17.5 0C7.835 0 0 7.835 0 17.5S7.835 35 17.5 35 35 27.165 35 17.5C34.99 7.84 27.16.01 17.5 0zm0 33.833c-9.02 0-16.333-7.312-16.333-16.333 0-9.02 7.312-16.333 16.333-16.333 9.02 0 16.333 7.312 16.333 16.333-.01 9.016-7.317 16.323-16.333 16.333z"/><path d="M25.083 7H9.917A2.92 2.92 0 007 9.917v15.166A2.92 2.92 0 009.917 28h15.166A2.92 2.92 0 0028 25.083V9.917A2.92 2.92 0 0025.083 7zm1.75 18.083a1.75 1.75 0 01-1.75 1.75H9.917a1.75 1.75 0 01-1.75-1.75V9.917c0-.967.783-1.75 1.75-1.75h15.166c.967 0 1.75.783 1.75 1.75v15.166z"/><path d="M17.5 11.667a5.833 5.833 0 100 11.666 5.833 5.833 0 000-11.666zm0 10.5a4.667 4.667 0 110-9.333 4.667 4.667 0 010 9.333zM23.917 9.333a1.75 1.75 0 100 3.5 1.75 1.75 0 000-3.5zm0 2.334a.583.583 0 110-1.167.583.583 0 010 1.167z"/></g><defs><clipPath id="ayclip0_196_633"><path fill="red" d="M0 0h35v35H0z"/></clipPath></defs></svg><svg viewBox="0 0 26 31" id="marker" xmlns="http://www.w3.org/2000/svg"><path d="M25.535 12.273a12.673 12.673 0 00-19.62-9.348A12.762 12.762 0 00.31 12.273a12.613 12.613 0 003.668 10.182l7.901 7.917a1.49 1.49 0 002.117 0l7.872-7.917a12.613 12.613 0 003.667-10.182zm-5.754 8.08l-6.858 6.858-6.858-6.858a9.675 9.675 0 01-2.788-7.782A9.795 9.795 0 017.586 5.37a9.646 9.646 0 0110.674 0 9.795 9.795 0 014.309 7.17 9.676 9.676 0 01-2.788 7.813zM12.923 6.861a6.709 6.709 0 106.709 6.709 6.723 6.723 0 00-6.71-6.71zm0 10.436a3.727 3.727 0 110-7.453 3.727 3.727 0 010 7.453z"/></svg><svg viewBox="0 0 11 2" id="minus" xmlns="http://www.w3.org/2000/svg"><path d="M10 0H.667a.667.667 0 000 1.333H10A.667.667 0 1010 0z"/></svg><svg viewBox="0 0 40 40" id="modal-smile" xmlns="http://www.w3.org/2000/svg"><path d="M32.467 4.378C29.811 2.08 26.5 1.152 23.077.742 13.958-2.166 5.826 3.85 2.274 12.188-1.553 21.177.268 31.21 8.568 36.816c8.473 5.722 20.118 3.37 26.618-4.163 7.103-8.233 5.35-21.292-2.719-28.275zM16.85 37.041c-4.806-.685-9.47-3.642-11.906-7.86-2.178-3.77-2.16-8.491-1.183-12.61C5.26 10.242 9.8 4.527 15.735 3.16c.01 0 .017.003.026.003 2.136.063 4.39.067 6.595.305.209.066.418.13.628.207.347.127.651.11.906.006 2.378.4 4.65 1.163 6.587 2.688 4.287 3.373 6.547 9.455 6.423 14.783-.232 10.042-10.538 17.243-20.05 15.89z"/><path d="M14.49 18.14c1.993 0 1.993-3.09 0-3.09-1.992 0-1.992 3.09 0 3.09zm10.662.154c1.993 0 1.993-3.09 0-3.09-1.992 0-1.992 3.09 0 3.09zm.762 5.244c-3.702 3.678-8.478 3.312-12.186-.155-1.453-1.36-3.643.822-2.185 2.186 4.933 4.613 11.647 5.032 16.556.154 1.416-1.406-.77-3.591-2.185-2.185z"/></svg><svg viewBox="0 0 520 520" id="ok" xmlns="http://www.w3.org/2000/svg"><g data-name="15-Checked"><path d="M232.019 422.469a10 10 0 01-8.624-4.938c-33.227-56.607-121.81-177.14-122.7-178.351a10 10 0 011.027-13.039l27.239-26.918a10 10 0 0112.755-1.085l88.222 61.6c59.034-75.7 113.87-128 149.946-158.861C420.5 66.139 446.355 50.5 447.437 49.856a10 10 0 015.145-1.425h44.068A10 10 0 01503.3 65.9C378.157 177.364 242.068 415.03 240.708 417.418a10 10 0 01-8.624 5.05z"/><path d="M230.1 464.132c-99.252 0-180-80.747-180-180s80.748-180 180-180a179.651 179.651 0 0158.491 9.72 10 10 0 11-6.5 18.916 159.712 159.712 0 00-52-8.636c-88.225 0-160 71.776-160 160s71.775 160 160 160 160-71.776 160-160a161.236 161.236 0 00-3.246-32.231 10 10 0 1119.6-4.005 181.324 181.324 0 013.651 36.236c.004 99.253-80.744 180-179.996 180z"/></g></svg><svg fill="none" viewBox="0 0 36 36" id="order-comment" xmlns="http://www.w3.org/2000/svg"><path d="M23.939 12.33l-8.502 8.531-3.325-3.348a1.804 1.804 0 00-2.944 1.97c.09.22.224.418.391.586l4.602 4.608a1.798 1.798 0 002.552 0l9.778-9.792a1.807 1.807 0 00-2.552-2.556zM18.025 0a17.954 17.954 0 00-12.71 5.272A18.012 18.012 0 00.051 17.999a17.816 17.816 0 004.062 11.394l-3.595 3.6a1.801 1.801 0 00-.377 1.962 1.8 1.8 0 001.707 1.043h16.177c4.768 0 9.34-1.896 12.71-5.271A18.012 18.012 0 0036 17.999c0-4.773-1.894-9.352-5.265-12.727A17.962 17.962 0 0018.025 0zm0 32.399H6.18l1.672-1.674a1.801 1.801 0 000-2.538 14.415 14.415 0 01-1.799-18.18 14.382 14.382 0 017.778-5.784 14.361 14.361 0 019.677.47 14.387 14.387 0 017.183 6.51 14.417 14.417 0 01-3.546 17.92 14.368 14.368 0 01-9.12 3.276z" fill="#fff"/></svg><svg fill="none" viewBox="0 0 30 30" id="order-info" xmlns="http://www.w3.org/2000/svg"><path d="M15 13.5a1.5 1.5 0 00-1.5 1.5v6a1.5 1.5 0 103 0v-6a1.5 1.5 0 00-1.5-1.5zm.57-5.88a1.5 1.5 0 00-1.14 0 1.5 1.5 0 00-.495.315 1.726 1.726 0 00-.315.495 1.26 1.26 0 00-.12.57 1.502 1.502 0 00.435 1.065c.146.133.313.239.495.315A1.5 1.5 0 0016.5 9a1.575 1.575 0 00-.435-1.065 1.5 1.5 0 00-.495-.315zM15 0a15 15 0 100 30 15 15 0 000-30zm0 27a12 12 0 110-24 12 12 0 010 24z" fill="#fff"/></svg><svg fill="none" viewBox="0 0 30 30" id="order-map" xmlns="http://www.w3.org/2000/svg"><path d="M14.91 0C8.89 0 4 4.9 4 10.91c0 8.09 9.5 17.68 9.9 18.08L14.91 30l1.01-1.01c.4-.4 9.9-9.99 9.9-18.08C25.82 4.9 20.93 0 14.91 0zm-4.62 10.91c0-2.55 2.07-4.62 4.62-4.62 2.55 0 4.62 2.07 4.62 4.62 0 2.55-2.07 4.63-4.62 4.63-2.55 0-4.62-2.08-4.62-4.63z" fill="#fff"/></svg><svg fill="none" viewBox="0 0 30 27" id="order-pay" xmlns="http://www.w3.org/2000/svg"><path d="M25.5 6H24V4.5A4.5 4.5 0 0019.5 0h-15A4.5 4.5 0 000 4.5v18A4.5 4.5 0 004.5 27h21a4.5 4.5 0 004.5-4.5v-12A4.5 4.5 0 0025.5 6zm-21-3h15A1.5 1.5 0 0121 4.5V6H4.5a1.5 1.5 0 010-3zM27 18h-1.5a1.5 1.5 0 110-3H27v3zm0-6h-1.5a4.5 4.5 0 100 9H27v1.5a1.5 1.5 0 01-1.5 1.5h-21A1.5 1.5 0 013 22.5V8.745A4.5 4.5 0 004.5 9h21a1.5 1.5 0 011.5 1.5V12z" fill="#fff"/></svg><svg viewBox="0 0 30 30" id="pay" xmlns="http://www.w3.org/2000/svg"><path d="M28.636 21.818H1.364a1.363 1.363 0 100 2.727h27.272a1.364 1.364 0 000-2.727zm0 5.455H1.364a1.364 1.364 0 000 2.727h27.272a1.364 1.364 0 000-2.727zM6.818 8.182a1.364 1.364 0 100 2.727 1.364 1.364 0 000-2.727zM25.91 0H4.091A4.09 4.09 0 000 4.09V15a4.09 4.09 0 004.09 4.09h21.82A4.09 4.09 0 0030 15V4.09A4.09 4.09 0 0025.91 0zm1.364 15a1.363 1.363 0 01-1.364 1.364H4.091A1.363 1.363 0 012.727 15V4.09a1.364 1.364 0 011.364-1.363h21.818a1.363 1.363 0 011.364 1.364V15zM15 5.455a4.091 4.091 0 100 8.182 4.091 4.091 0 000-8.182zm0 5.454a1.364 1.364 0 110-2.728 1.364 1.364 0 010 2.728zm8.182-2.727a1.364 1.364 0 100 2.727 1.364 1.364 0 000-2.727z"/></svg><svg viewBox="0 0 24 23" id="phone" xmlns="http://www.w3.org/2000/svg"><path d="M20.092 12.696c-.254 0-.52-.08-.773-.138a11.374 11.374 0 01-1.512-.45 2.309 2.309 0 00-2.863 1.154l-.254.53a15.202 15.202 0 01-3.082-2.308A15.202 15.202 0 019.3 8.402l.531-.242a2.308 2.308 0 001.154-2.862 12.09 12.09 0 01-.45-1.524 9.052 9.052 0 01-.138-.773A3.463 3.463 0 006.934.127H3.46A3.463 3.463 0 00.875 1.281a3.463 3.463 0 00-.843 2.77 22.01 22.01 0 006.244 12.696 22.01 22.01 0 0012.696 6.244c.15.012.3.012.45 0a3.462 3.462 0 002.309-.877 3.463 3.463 0 001.154-2.585v-3.463a3.463 3.463 0 00-2.793-3.37zm.565 6.925a1.153 1.153 0 01-.38.854 1.155 1.155 0 01-.947.289 19.806 19.806 0 01-11.392-5.586A19.806 19.806 0 012.306 3.75a1.154 1.154 0 01.68-1.23c.15-.065.31-.098.474-.097h3.463a1.154 1.154 0 011.154.9c0 .312.104.635.173.946.133.605.31 1.2.53 1.778l-1.615.762c-.278.127-.494.36-.6.646a1.154 1.154 0 000 .877 16.724 16.724 0 008.079 8.08c.281.115.596.115.877 0 .287-.107.52-.323.646-.6l.728-1.617a14.322 14.322 0 002.758.705 1.153 1.153 0 01.9 1.154l.104 3.566zM13.847 0h-.807a1.158 1.158 0 00.196 2.308h.612a6.925 6.925 0 016.925 6.925v.612a1.155 1.155 0 001.05 1.247h.092a1.154 1.154 0 001.155-1.05v-.809A9.233 9.233 0 0013.848 0zm2.309 9.233a1.154 1.154 0 102.308 0 4.617 4.617 0 00-4.616-4.616 1.154 1.154 0 100 2.308 2.308 2.308 0 012.308 2.308z"/></svg><svg viewBox="0 0 11 11" id="plus" xmlns="http://www.w3.org/2000/svg"><path d="M10 4.667H6v-4a.667.667 0 00-1.333 0v4h-4A.667.667 0 10.667 6h4v4A.667.667 0 106 10V6h4a.667.667 0 100-1.333z"/></svg><svg viewBox="0 0 36 34" id="question" xmlns="http://www.w3.org/2000/svg"><path d="M17.01 22.483c-.075.08-.146.163-.212.25-.067.093-.12.194-.16.3a1.024 1.024 0 00-.106.3c-.008.111-.008.223 0 .334a1.33 1.33 0 00.142.633c.08.207.207.395.372.55.166.156.365.275.585.35a1.757 1.757 0 001.347 0c.22-.075.42-.194.585-.35.166-.155.293-.343.372-.55.08-.203.115-.418.107-.633a1.579 1.579 0 00-.132-.64 1.662 1.662 0 00-.382-.544 1.783 1.783 0 00-.577-.364 1.868 1.868 0 00-1.363 0 1.782 1.782 0 00-.577.364zM18.27.333c-3.506 0-6.933.978-9.848 2.81-2.915 1.83-5.186 4.434-6.528 7.479a15.745 15.745 0 00-1.009 9.63c.684 3.233 2.372 6.202 4.851 8.533 2.48 2.331 5.637 3.918 9.075 4.561 3.439.644 7.002.314 10.241-.948 3.239-1.261 6.007-3.398 7.955-6.139 1.947-2.74 2.987-5.963 2.987-9.259 0-2.189-.459-4.356-1.35-6.378a16.639 16.639 0 00-3.842-5.407 17.84 17.84 0 00-5.75-3.613A18.705 18.705 0 0018.27.333zm0 30c-2.805 0-5.547-.782-7.878-2.247-2.332-1.465-4.15-3.547-5.223-5.983a12.596 12.596 0 01-.807-7.704c.547-2.587 1.898-4.962 3.88-6.827 1.984-1.865 4.51-3.135 7.261-3.65 2.75-.514 5.602-.25 8.192.76 2.591 1.009 4.806 2.718 6.364 4.91 1.558 2.193 2.39 4.771 2.39 7.408 0 3.536-1.494 6.928-4.153 9.428-2.66 2.5-6.266 3.905-10.027 3.905zm0-21.666a5.58 5.58 0 00-2.661.669 5.17 5.17 0 00-1.948 1.83c-.128.19-.214.402-.253.624a1.57 1.57 0 00.027.667c.057.219.16.424.304.604.143.18.324.33.53.443a1.882 1.882 0 001.38.158c.231-.063.445-.169.63-.311a1.69 1.69 0 00.448-.518c.156-.254.381-.465.652-.611a1.86 1.86 0 01.89-.222c.47 0 .921.176 1.254.488.332.313.519.737.519 1.179 0 .442-.187.866-.52 1.178a1.83 1.83 0 01-1.253.488c-.47 0-.92.176-1.253.489-.332.312-.52.736-.52 1.178v1.667c0 .442.188.866.52 1.178a1.83 1.83 0 001.253.488c.47 0 .921-.175 1.254-.488.332-.312.519-.736.519-1.178v-.3a5.251 5.251 0 002.784-2.189 4.748 4.748 0 00.642-3.358 4.938 4.938 0 00-1.797-2.964 5.52 5.52 0 00-3.402-1.19z"/></svg><svg viewBox="0 0 25 25" id="rating" xmlns="http://www.w3.org/2000/svg"><path d="M24.935 9.102a1.326 1.326 0 00-1.144-.914l-7.216-.655L13.722.854a1.33 1.33 0 00-2.444.002L8.425 7.533l-7.217.655a1.329 1.329 0 00-.754 2.325l5.454 4.784L4.3 22.38a1.328 1.328 0 001.976 1.436l6.224-3.72 6.222 3.72A1.33 1.33 0 0020.7 22.38l-1.608-7.085 5.454-4.782a1.33 1.33 0 00.39-1.412z"/></svg><svg viewBox="0 0 37 37" id="review-user" xmlns="http://www.w3.org/2000/svg"><path d="M24.044 19.58a8.928 8.928 0 10-11.041 0 14.881 14.881 0 00-9.256 12.173 1.497 1.497 0 102.976.327 11.905 11.905 0 0123.66 0 1.487 1.487 0 001.489 1.325h.163a1.488 1.488 0 001.31-1.637 14.88 14.88 0 00-9.3-12.188zm-5.52-1.056a5.952 5.952 0 110-11.905 5.952 5.952 0 010 11.905z"/></svg><svg viewBox="0 0 24 24" id="sales" xmlns="http://www.w3.org/2000/svg"><path d="M20.49 3.51c-4.682-4.68-12.298-4.68-16.98 0-4.68 4.682-4.68 12.298 0 16.98A11.97 11.97 0 0012 24a11.97 11.97 0 008.49-3.51c4.68-4.682 4.68-12.298 0-16.98zM7.727 5.648A2.333 2.333 0 019.39 4.96c.628 0 1.219.245 1.662.689.444.443.688 1.033.688 1.66 0 .628-.244 1.218-.688 1.662a2.333 2.333 0 01-1.662.688 2.333 2.333 0 01-1.66-.688 2.333 2.333 0 01-.689-1.661c0-.628.244-1.218.688-1.662zm.396 11.337a.78.78 0 01-1.108 0 .783.783 0 010-1.108l8.86-8.86a.783.783 0 111.108 1.108l-8.86 8.86zm8.67.854a2.333 2.333 0 01-1.662.688 2.333 2.333 0 01-1.661-.688 2.332 2.332 0 01-.688-1.661c0-.628.244-1.218.688-1.662a2.333 2.333 0 011.662-.688c.627 0 1.218.245 1.661.689.444.444.688 1.033.688 1.66 0 .628-.244 1.218-.688 1.662z" fill-opacity=".75"/></svg><svg viewBox="0 0 26 26" id="search" xmlns="http://www.w3.org/2000/svg"><path d="M25.753 24.585l-6.712-6.605c1.758-1.91 2.838-4.436 2.838-7.215C21.878 4.819 16.98 0 10.939 0 4.898 0 0 4.82 0 10.765S4.898 21.53 10.94 21.53a11 11 0 006.884-2.404l6.739 6.631a.85.85 0 001.19 0 .82.82 0 000-1.172zM10.94 19.873c-5.112 0-9.256-4.078-9.256-9.108s4.144-9.109 9.256-9.109 9.256 4.078 9.256 9.109c0 5.03-4.144 9.108-9.256 9.108z"/></svg><svg viewBox="0 0 24 24" id="select" xmlns="http://www.w3.org/2000/svg"><path d="M14.996 17.998a1 1 0 001-1V5.408l2.29 2.3a1.004 1.004 0 001.42-1.42l-4-4a1 1 0 00-1.09-.21 1 1 0 00-.62.92v14a1 1 0 001 1zm-6.62 3.92a1 1 0 00.62-.92v-14a1 1 0 00-2 0v11.59l-2.29-2.3a1.001 1.001 0 00-1.639.326 1 1 0 00.219 1.094l4 4a1 1 0 001.09.21z"/></svg><svg viewBox="0 0 28 28" id="shopping" xmlns="http://www.w3.org/2000/svg"><path d="M16.194 4.181a2.295 2.295 0 10-4.582-.266 2.295 2.295 0 004.582.266zM15.25 8.807a1.127 1.127 0 10-2.256 0v2.98c0 .53.365.974.855 1.093l4.215 1.128c.604.16 1.22-.193 1.385-.797a1.132 1.132 0 00-.798-1.384l-3.4-.912V8.807zM9.354 16.1l-.547 2.762-4.82-.262a.518.518 0 00-.535.41l-.518 2.359c-.08.364.239.695.604.62.535-.102 1.23-.398 1.618-1.241l4.284.364 1.692-1.515L9.354 16.1zM25.077 20.69l-.512-2.99-3.829 1.6-4.141-.238.512 2.99c.023.143.177.234.337.206l7.383-1.26c.16-.028.273-.165.25-.307z"/><path d="M13.21 24.075l1.932-3.612-1.088-4.068.723-2.694-1.065-.285a1.688 1.688 0 01-1.26-1.624V8.813c0-.33.098-.638.263-.894l-1.213-.194a.829.829 0 00-.65.16.835.835 0 00-.342.575l-.974 6.785 2.484 4.882-1.31 5.27a.696.696 0 00.678.865h3.64a.415.415 0 00.399-.54c-.28-.912-.678-1.482-2.216-1.647zM24.565 17.108c.12-.052.188-.154.17-.251l-.41-2.393c-.022-.125-.17-.205-.33-.176l-1.441.245-.678-1.464a.742.742 0 00-.826-.382l-1.014.182c.005.16-.012.32-.057.484a1.545 1.545 0 01-.16.388l1.35-.245.547 1.18-3.424.586.052-.661c-.143 0-.285-.017-.422-.057l-.387-.103-.08.963-1.464.25c-.16.03-.274.155-.25.28l.41 2.393c.017.102.113.176.244.182l4.245.25 3.925-1.651z"/></svg><svg viewBox="0 0 25 24" id="stock" xmlns="http://www.w3.org/2000/svg"><path d="M22.5 9.64c.1-.5-.3-1.099-.8-1.099l-5.7-.8-2.6-5.2c-.1-.2-.2-.3-.4-.4-.5-.3-1.1-.1-1.4.4l-2.5 5.2-5.7.8c-.3 0-.5.1-.6.3-.4.4-.4 1 0 1.4l4.1 4-1 5.7c0 .2 0 .4.1.6.3.5.9.7 1.4.4l5.1-2.7 5.1 2.7c.1.1.3.1.5.1h.2c.5-.1.9-.6.8-1.2l-1-5.7 4.1-4c.2-.1.3-.3.3-.5z" fill-opacity=".75"/></svg><svg viewBox="0 0 35 35" id="telegram" xmlns="http://www.w3.org/2000/svg"><g clip-path="url(#bsclip0_11_201)"><path d="M17.5 35C27.15 35 35 27.15 35 17.5S27.15 0 17.5 0 0 7.85 0 17.5 7.85 35 17.5 35zm0-32.813c8.444 0 15.313 6.87 15.313 15.313 0 8.444-6.87 15.313-15.313 15.313-8.444 0-15.313-6.87-15.313-15.313 0-8.444 6.87-15.313 15.313-15.313z"/><path d="M11.515 20.643l2.287-.993-.642.643c-.206.205-.32.484-.32.773v4.28c0 .98 1.183 1.455 1.866.773L17 23.823l5.002 2.501c.648.324 1.43-.06 1.565-.783l2.854-15.693a1.096 1.096 0 00-1.476-1.215L6.402 15.891c-.831.324-.942 1.462-.19 1.941l4.28 2.73c.305.196.692.226 1.023.08zm12.404-9.256l-2.24 12.33-4.405-2.2a1.092 1.092 0 00-1.262.205l-.985.986v-1.186l4.385-4.385c.85-.85-.107-2.253-1.21-1.776l-7.024 3.047-1.975-1.26 14.716-5.761z"/></g><defs><clipPath id="bsclip0_11_201"><path fill="#fff" d="M0 0h35v35H0z"/></clipPath></defs></svg><svg viewBox="0 0 26 26" id="user" xmlns="http://www.w3.org/2000/svg"><path d="M12.906 14.01h.172c1.578-.027 2.854-.582 3.796-1.643 2.073-2.336 1.728-6.342 1.69-6.724-.134-2.87-1.49-4.243-2.61-4.884C15.118.28 14.143.022 13.055 0h-.091c-.598 0-1.771.097-2.897.738-1.13.64-2.509 2.013-2.643 4.905-.038.382-.383 4.388 1.69 6.724.937 1.061 2.213 1.616 3.79 1.642zM8.862 5.776c0-.016.006-.032.006-.043.177-3.86 2.918-4.275 4.092-4.275h.064c1.454.032 3.925.625 4.092 4.275 0 .016 0 .032.006.043.005.038.382 3.7-1.33 5.627-.679.764-1.583 1.141-2.773 1.152h-.054c-1.185-.011-2.095-.388-2.768-1.152-1.706-1.917-1.34-5.595-1.335-5.627z"/><path d="M24.056 20.654v-.017c0-.043-.005-.086-.005-.134-.032-1.066-.102-3.56-2.44-4.356-.015-.005-.037-.01-.053-.016-2.428-.62-4.447-2.02-4.469-2.035a.726.726 0 10-.834 1.19c.091.064 2.234 1.556 4.915 2.245 1.255.447 1.395 1.787 1.432 3.015 0 .048 0 .091.006.134.005.485-.027 1.233-.113 1.664-.872.495-4.291 2.208-9.492 2.208-5.18 0-8.62-1.718-9.498-2.213-.086-.43-.124-1.18-.113-1.664 0-.043.005-.086.005-.134.038-1.228.178-2.569 1.433-3.016 2.68-.689 4.824-2.186 4.915-2.245a.726.726 0 10-.834-1.19c-.022.016-2.03 1.416-4.47 2.035l-.053.017c-2.337.802-2.407 3.295-2.439 4.355 0 .049 0 .092-.005.135v.016c-.006.28-.011 1.718.274 2.44a.69.69 0 00.28.338C2.66 23.534 6.531 26 13.008 26c6.477 0 10.348-2.471 10.51-2.574a.72.72 0 00.28-.339c.269-.716.264-2.154.258-2.433z"/></svg><svg viewBox="0 0 35 35" id="viber" xmlns="http://www.w3.org/2000/svg"><path d="M20.833 0h-6.667C7.184 0 1.503 5.68 1.503 12.66v6.006c0 5.199 3.195 9.871 7.998 11.774v3.893a.666.666 0 001.114.494l3.865-3.5h6.353c6.982 0 12.663-5.68 12.663-12.66V12.66C33.496 5.679 27.816 0 20.833 0zm11.33 18.666c0 6.246-5.082 11.328-11.33 11.328h-6.61a.665.665 0 00-.447.172l-2.942 2.665v-2.853a.665.665 0 00-.444-.628 11.351 11.351 0 01-7.554-10.684v-6.005c0-6.246 5.083-11.328 11.33-11.328h6.667c6.248 0 11.33 5.082 11.33 11.328v6.005z"/><path d="M26.308 20.325l-4.096-2.661a1.996 1.996 0 00-2.766.586l-.193.296c-1.773-.586-3.728-1.334-4.898-4.722l.484-.421c.832-.724.92-1.989.197-2.822L11.83 6.895a.667.667 0 00-.94-.066L8.877 8.578c-1.765 1.534-.94 3.803-.67 4.55a.662.662 0 00.045.096c.07.125 1.74 3.107 4.44 5.856 2.709 2.76 7.6 5.309 7.75 5.383a3.337 3.337 0 004.61-.98l1.452-2.235a.668.668 0 00-.197-.924zm-2.373 2.432c-.6.925-1.842 1.187-2.822.555-.048-.025-4.908-2.556-7.47-5.165-2.393-2.439-3.983-5.148-4.2-5.526-.528-1.48-.434-2.39.31-3.037l1.51-1.312 2.767 3.184a.66.66 0 01-.064.94l-.818.71a.666.666 0 00-.2.7c1.394 4.53 4.106 5.42 6.085 6.07l.289.096a.664.664 0 00.77-.269l.472-.728a.659.659 0 01.922-.194l3.538 2.298-1.09 1.678zM19.021 10.83a.666.666 0 10-.365 1.282 3.016 3.016 0 012.064 2.068.667.667 0 001.283-.361 4.358 4.358 0 00-2.982-2.99z"/><path d="M24.093 14.81a.667.667 0 00.642-.847 8.464 8.464 0 00-5.791-5.805.666.666 0 10-.365 1.282 7.122 7.122 0 014.873 4.884c.084.294.35.486.641.486z"/><path d="M18.657 5.054a.666.666 0 10-.365 1.282 12.066 12.066 0 018.257 8.276.667.667 0 001.282-.362c-1.245-4.417-4.76-7.94-9.174-9.196z"/></svg><svg viewBox="0 0 24 24" id="write" xmlns="http://www.w3.org/2000/svg"><path d="M21.71 4.72l-2.43-2.43a1 1 0 00-1.41 0l-5.58 5.58a1 1 0 00-.29.71V11a1 1 0 001 1h2.42a1 1 0 00.71-.29l5.58-5.58a1 1 0 000-1.41zM15 10h-1V9l4.58-4.58 1 1L15 10zm4 2a1 1 0 00-1 1 7 7 0 01-7 7H5.41l.64-.63a1 1 0 000-1.42A7 7 0 0111 6a1 1 0 100-2 9 9 0 00-7 14.62l-1.71 1.67a1 1 0 00-.21 1.09A1 1 0 003 22h8a9 9 0 009-9 1 1 0 00-1-1z"/></svg></svg>